<?xml version="1.0" encoding="UTF-8"?>
<!-- Generator: Adobe Illustrator 15.0.0, SVG Export Plug-In . SVG Version: 6.00 Build 0)  -->
<!DOCTYPE svg PUBLIC "-//W3C//DTD SVG 1.1//EN" "http://www.w3.org/Graphics/SVG/1.1/DTD/svg11.dtd">
<svg version="1.1" id="Layer_1" xmlns="http://www.w3.org/2000/svg" xmlns:xlink="http://www.w3.org/1999/xlink" x="0px" y="0px" width="60px" height="377.042px" viewBox="0 0 60 377.042" enable-background="new 0 0 60 377.042" xml:space="preserve">
<rect x="-67.5" y="-57.5" display="none" fill="#E8E8E8" width="204" height="517"/>
<polygon points="10,0 0,0 0,3.001 5.988,3.001 1.996,15.122 5.988,26.964 0,26.964 0,30.007 10,30.007 5,15.178 "/>
<polygon fill="#4B86C2" points="10,0 20,0 15,15.178 20,30.007 10,30.007 "/>
<polygon fill="#4B86C2" points="10,30.007 4.99,30.007 0,45.178 4.99,59.999 10,59.999 "/>
<polygon fill="#419ADF" points="20,30.007 14.99,30.007 10,45.178 14.99,59.999 20,59.999 "/>
<polygon fill="#FFFFFF" points="30,30.007 24.99,30.007 20,45.178 24.99,59.999 30,59.999 "/>
<polygon points="7.053,60 10,60 10,100.022 7.045,100.022 0,80.255 "/>
<polygon fill="#419ADF" points="17.053,60 20,60 20,100.022 17.045,100.022 10,80.255 "/>
<polygon points="2.947,100.022 0,100.022 0,140.043 2.955,140.043 10,120.277 "/>
<polygon fill="#419ADF" points="12.933,274 9.996,274 17.05,294.255 10.005,314.021 12.943,314.021 19.988,294.255 "/>
<polygon points="2.942,274 0.004,274 7.058,294.255 0.013,314.021 2.951,314.021 9.996,294.255 "/>
<polygon fill="#419ADF" points="17.05,314.021 19.988,314.021 12.934,334.275 19.979,354.042 17.042,354.042 9.997,334.275 "/>
<polygon points="7.054,314.021 9.991,314.021 2.938,334.275 9.982,354.042 7.045,354.042 0,334.275 "/>
<polygon fill="#419ADF" points="12.947,100.022 10,100.022 10,140.043 12.955,140.043 20,120.277 "/>
<polygon fill="#E5E5E5" points="27.053,60 30,60 30,100.022 27.045,100.022 20,80.255 "/>
<polygon fill="#E5E5E5" points="22.947,100.022 20,100.022 20,140.043 22.955,140.043 30,120.277 "/>
<polygon fill="#FFFFFF" points="37.053,60 40,60 40,100.022 37.045,100.022 30,80.255 "/>
<polygon fill="#FFFFFF" points="32.947,100.022 30,100.022 30,140.043 32.955,140.043 40,120.277 "/>
<g>
	<g>
		<path fill="#FFFFFF" d="M13,163.043h4v-6h6v-4h-6v-6h-4v6H7v4h6V163.043z M0,140.043v30h30v-30H0z M26,166.043H4v-22h22V166.043z"/>
	</g>
</g>
<g>
	<g>
		<path fill="#419ADF" d="M43,163.043h4v-6h6v-4h-6v-6h-4v6h-6v4h6V163.043z M30,140.043v30h30v-30H30z M56,166.043H34v-22h22    V166.043z"/>
	</g>
</g>
<g>
	<polygon fill="#FFFFFF" points="0,190.042 0,220.035 5.391,220.035 0.25,205.221 5.408,190.042  "/>
	<circle fill="#FFFFFF" cx="9.699" cy="205.038" r="1.979"/>
</g>
<path fill="#FFFFFF" d="M0,238v-18l18.041,18H0z"/>
<g>
	<g>
		<path fill="#FFFFFF" d="M12.996,176.066c0-0.604,0.51-0.819,1.109-0.819c0,0,0.537,0,1.178,0.18l0.381-2.28    c-0.82-0.277-2.699-0.277-2.699-0.277c-1.199,0-1.963,0.461-2.463,1.119c-0.48,0.643-0.5,1.66-0.5,2.32v1.688H8.399v1.989h1.603    v7.054h2.994v-7.054h2.031l0.461-1.959l-2.492-0.03V176.066z"/>
	</g>
</g>
<g>
	<g>
		<path fill="#FFFFFF" d="M36.348,176.184c-0.455,0.201-0.947,0.338-1.461,0.4c0.524-0.314,0.928-0.814,1.118-1.41    c-0.491,0.293-1.036,0.506-1.616,0.619c-0.465-0.496-1.127-0.805-1.859-0.805c-1.4,0-2.542,1.141-2.542,2.547    c0,0.199,0.022,0.395,0.065,0.58c-2.115-0.104-3.992-1.119-5.248-2.66c-0.219,0.375-0.344,0.812-0.344,1.279    c0,0.883,0.449,1.663,1.133,2.12c-0.418-0.018-0.811-0.129-1.154-0.318v0.031c0,1.23,0.878,2.264,2.043,2.498    c-0.214,0.059-0.438,0.088-0.671,0.088c-0.164,0-0.323-0.016-0.479-0.045c0.324,1.012,1.265,1.748,2.379,1.77    c-0.871,0.684-1.969,1.09-3.162,1.09c-0.205,0-0.408-0.012-0.607-0.035c1.127,0.726,2.465,1.146,3.902,1.146    c4.688,0,7.245-3.881,7.245-7.244c0-0.105-0.003-0.223-0.007-0.33C35.575,177.143,36.007,176.693,36.348,176.184z"/>
	</g>
</g>
<g>
	<g>
		<path fill="#FFFFFF" d="M53.91,180.438c-0.453-0.496-1.051-0.805-1.771-0.971v-0.062c0.494-0.207,0.906-0.559,1.194-1.012    s0.454-0.973,0.454-1.547c0-0.517-0.124-0.972-0.33-1.343c-0.207-0.391-0.536-0.698-0.969-0.928    c-0.393-0.229-0.805-0.371-1.258-0.435c-0.479-0.062-1.135-0.104-2.021-0.104H44.98v12.018h4.805c0.824,0,1.506-0.082,2.041-0.227    c0.557-0.166,1.051-0.412,1.505-0.764c0.371-0.312,0.683-0.685,0.905-1.113c0.229-0.453,0.33-0.988,0.33-1.586    C54.57,181.57,54.344,180.913,53.91,180.438z M47.975,176.252h1.422c0.271,0.021,0.521,0.062,0.701,0.146    c0.229,0.104,0.37,0.248,0.473,0.453c0.104,0.207,0.146,0.394,0.146,0.599c0,0.268-0.041,0.495-0.146,0.7    c-0.082,0.187-0.24,0.351-0.488,0.453c-0.206,0.104-0.438,0.166-0.645,0.166c-0.207,0.021-0.557,0.021-1.066,0.021h-0.396V176.252    L47.975,176.252z M51.293,183.252c-0.145,0.229-0.33,0.506-0.619,0.609c-0.309,0.145-0.617,0.111-0.906,0.133    c-0.311,0-0.846,0.021-1.629,0.021h-0.164v-3.014h1.834c0.33,0.021,0.576,0.062,0.762,0.123c0.313,0.123,0.521,0.271,0.687,0.479    c0.146,0.205,0.229,0.494,0.229,0.887C51.479,182.758,51.416,183.025,51.293,183.252z"/>
	</g>
</g>
<polygon points="4,238 0,242 4,246 "/>
<polygon fill="#419ADF" points="8,238 4,242 8,246 "/>
<polygon fill="#666666" points="0,246 0,255 5,250.5 "/>
<polygon fill="#419ADF" points="5,246 5,255 10,250.5 "/>
<polygon fill="#FFFFFF" points="10,246 10,255 15,250.5 "/>
<polygon fill="#FFFFFF" points="15,255 15,264 10,259.5 "/>
<polygon fill="#419ADF" points="10,255 10,264 5,259.5 "/>
<polygon fill="#666666" points="5,255 5,264 0,259.5 "/>
<polygon fill="#666666" points="9,274 0,274 4.5,269 "/>
<polygon fill="#419ADF" points="18.021,274 9.021,274 13.521,269 "/>
<polygon fill="#666666" points="8.999,264 -0.001,264 4.499,269 "/>
<polygon fill="#419ADF" points="18.02,264 9.02,264 13.52,269 "/>
<path d="M6.475,360.1c0.795-0.267,1.289-1.188,1.48-2.765c0.016-0.103,0.024-0.192,0.024-0.274c0.031-0.417,0.028-0.784-0.011-1.11  c-0.041-0.322-0.095-0.591-0.167-0.796c-0.071-0.209-0.204-0.389-0.394-0.536c-0.191-0.15-0.351-0.265-0.478-0.336  c-0.127-0.076-0.334-0.132-0.621-0.162c-0.286-0.035-0.498-0.056-0.633-0.062c-0.136-0.011-0.354-0.015-0.656-0.015l-0.646,0.024  c-1.001,0-1.982,1.103-2.938,3.304C0.478,359.574,0,362.32,0,365.609s0.478,5.912,1.434,8.113c0.955,2.203,1.936,3.303,2.938,3.303  h0.622c0.318,0.018,0.545,0.021,0.681,0.012c0.135-0.009,0.347-0.022,0.633-0.05c0.287-0.024,0.494-0.073,0.621-0.149  c0.127-0.074,0.287-0.19,0.478-0.35c0.19-0.156,0.323-0.339,0.394-0.547c0.073-0.209,0.127-0.47,0.167-0.785  c0.039-0.314,0.042-0.684,0.011-1.096c-0.08-0.766-0.2-1.375-0.358-1.835c-0.159-0.454-0.39-0.78-0.692-0.97  c-0.302-0.191-0.565-0.303-0.788-0.336c-0.224-0.035-0.583-0.045-1.075-0.025H4.778c-0.955,0-1.433-1.675-1.433-5.273  c0-3.596,0.479-5.396,1.433-5.396l0,0C5.655,360.226,6.22,360.186,6.475,360.1L6.475,360.1z"/>
<polygon fill="#FFFFFF" points="0,3.001 0,26.964 5.988,26.964 1.996,15.122 5.988,3.001 "/>
</svg>